<svg width="580" height="400" xmlns="http://www.w3.org/2000/svg">
 <!-- Created with Method Draw - http://github.com/duopixel/Method-Draw/ -->
 <defs>
  <filter height="200%" width="200%" y="-50%" x="-50%" id="svg_65_blur">
   <feGaussianBlur stdDeviation="0" in="SourceGraphic"/>
  </filter>
 </defs>
 <g>
  <title>background</title>
  <rect fill="#000505" id="canvas_background" height="402" width="582" y="-1" x="-1"/>
  <g display="none" overflow="visible" y="0" x="0" height="100%" width="100%" id="canvasGrid">
   <rect fill="url(#gridpattern)" stroke-width="0" y="0" x="0" height="100%" width="100%"/>
  </g>
 </g>
 <g>
  <title>Layer 1</title>
  <!-- Created with Method Draw - http://github.com/duopixel/Method-Draw/ -->
  <path stroke-dasharray="5,2,2,2,2,2" id="svg_32" d="m80.909863,99.586989l-24.381003,0c-7.182813,0 -13.868745,-9.8801 -13.868745,-21.125126l0,-8.158331l37.965816,0c6.141728,0 11.124065,-6.552536 11.124065,-14.635037c0,-8.086962 -4.982337,-14.639498 -11.124065,-14.639498l-37.965816,0l0,-14.456616c0,-8.185094 -4.647703,-14.82238 -10.789431,-14.82238c-6.138348,0 -11.120685,6.637286 -11.120685,14.82238l0,51.889482c0,27.789175 15.835991,50.288147 35.410424,50.288147l24.374243,0c6.145108,0 11.215329,-6.525773 11.215329,-14.710867s-4.698405,-14.452155 -10.840133,-14.452155z" stroke-width="2.5" stroke="#000" fill="#fff"/>
  <path id="svg_33" d="m80.865966,266.494c-18.140069,3.318628 -24.164889,18.412681 -24.399978,27.043286c9.972117,0.716954 16.221092,-4.882891 18.763326,-8.158067c4.160516,-4.649338 5.166475,-11.194258 5.636652,-18.885219zm2.230605,29.813335c-13.11574,0 -20.441747,5.32284 -24.044612,5.382586c-4.149582,-0.320457 -16.221092,-5.143601 -23.262806,-5.219642c-24.656935,0.727817 -31.709583,27.347448 -31.403422,38.791554c2.006451,43.8048 28.91586,55.11855 33.311464,56.177687c3.531792,0.689797 15.422885,-5.404312 24.164889,-5.121876c9.551145,0.988527 16.232026,4.91548 20.059045,4.643906c4.860314,-0.336751 20.682302,-13.035526 25.455141,-32.626836c-9.611284,-8.076595 -15.54863,-15.403647 -16.078946,-22.345065c-0.25149,-3.144821 4.510415,-20.911157 12.093379,-25.902677c1.093434,-6.13756 -10.168935,-13.926287 -19.003881,-13.75248c-0.437374,-0.016294 -0.863813,-0.027157 -1.290252,-0.027157z" fill-opacity="null" stroke-opacity="null" stroke-dasharray="5,2,2,2" stroke-width="2.5" stroke="#000" fill="#fff"/>
  <!-- Created with Method Draw - http://github.com/duopixel/Method-Draw/ -->
  <g filter="url(#svg_65_blur)" opacity="0.78" stroke="null" id="svg_65">
   <g stroke="null" transform="matrix(0.7535202291919848,0,0,0.9983355434433864,-3792.64267337004,-3628.4434171629414) " id="svg_62">
    <title stroke-width="0" stroke="null" transform="translate(-3.9813132286071777,-4.006669044494629) translate(5.308417320251465,5.008336067199707) translate(19.4842529296875,48.32328796386719) translate(5198.525390625,0) translate(0,3585.51171875) ">background</title>
    <rect stroke-width="0" stroke="null" x="5218.336748" y="3633.836674" width="582" height="402" id="svg_60" fill="#fff"/>
    <g stroke="null" id="svg_59" display="none">
     <rect stroke="null" id="svg_63" width="580" height="400" x="5219.336748" y="3634.836674" stroke-width="0" fill="url(#gridpattern)"/>
    </g>
   </g>
   <g stroke="null" transform="matrix(0.7535202291919848,0,0,0.9983355434433864,-3792.64267337004,-3628.4434171629414) " id="svg_64">
    <title stroke-width="0" stroke="null" transform="translate(-3.9813132286071777,-4.006669044494629) translate(5.308417320251465,5.008336067199707) translate(19.4842529296875,48.32328796386719) translate(5198.525390625,0) translate(0,3585.51171875) ">Layer 1</title>
    <!-- Created with Method Draw - http://github.com/duopixel/Method-Draw/ -->
    <g stroke="null" id="svg_50">
     <g stroke="null" id="svg_55" transform="matrix(0.871173879478865,0,0,0.9946625850385958,-6090.328038323323,-4824.670521145489) ">
      <title stroke-width="0" stroke="null" transform="translate(-4.570055961608887,-4.02816915512085) translate(6.093407154083252,5.035211086273193) translate(22.365514755249023,48.58259201049805) translate(5967.26513671875,0) translate(0,3604.751708984375) ">background</title>
      <rect stroke-width="0" stroke="null" fill="#15d675" id="svg_58" height="402" width="672" y="8505.071812" x="12980.951855"/>
      <g stroke="null" display="none" id="svg_56">
       <rect stroke="null" fill="url(#gridpattern)" stroke-width="0" y="8506.071812" x="12981.951855" height="400" width="580" id="svg_57"/>
      </g>
     </g>
     <g stroke="null" id="svg_51" transform="matrix(0.871173879478865,0,0,0.9946625850385958,-6090.328038323323,-4824.670521145489) ">
      <title stroke-width="0" stroke="null" transform="translate(-4.570055961608887,-4.02816915512085) translate(6.093407154083252,5.035211086273193) translate(22.365514755249023,48.58259201049805) translate(5967.26513671875,0) translate(0,3604.751708984375) ">Layer 1</title>
      <path stroke="#000" transform="rotate(-25.368968963623047 13032.701171875,8557.767578124998) " id="svg_54" d="m13066.588883,8596.192073c0,1.18284 -0.95064,2.14115 -2.12404,2.14115l-13.60179,0c-1.17339,0 -2.12404,-0.95831 -2.12404,-2.14115l0,-29.13023c0,-1.18275 0.95065,-2.14115 2.12404,-2.14115l13.60179,0c1.1734,0 2.12404,0.9584 2.12404,2.14115l0,29.13023zm-50.35759,0c0,1.18284 -0.95083,2.14115 -2.12404,2.14115l-13.60198,0c-1.17321,0 -2.12404,-0.95831 -2.12404,-2.14115l0,-29.13023c0,-1.18275 0.95083,-2.14115 2.12404,-2.14115l13.60198,0c1.17321,0 2.12404,0.9584 2.12404,2.14115l0,29.13023zm16.43281,-78.98962c-24.61313,0 -44.59329,19.95894 -44.90013,44.69459l7.79231,0c0.25267,-20.44429 16.76683,-36.93975 37.10782,-36.93975c20.34098,0 36.85515,16.49546 37.10487,36.93975l7.79213,0c-0.30372,-24.73565 -20.28976,-44.69459 -44.89701,-44.69459l0.00001,0zm-44.83696,67.35269l7.65091,0l0,-22.70363l-7.65091,0l0,22.70363zm81.87867,-22.70669l0,22.70373l7.93351,0l0,-22.70373l-7.93351,0z" stroke-width="0" fill="#fff"/>
      <text stroke="#26c985" font-style="normal" font-weight="normal" transform="rotate(13 13316.899414062502,8757.610351562504) matrix(4.0334367752075195,0,0,6.703703880310059,-696.1737399101257,-778.1990981698036) " xml:space="preserve" text-anchor="start" font-family="'Times New Roman', Times, serif" font-size="24" id="svg_53" y="1430.580775" x="3429.904369" stroke-width="0" fill="#000000">C A M C</text>
      <path stroke="#26c985" d="m13241.451853,8571.509313c-1,0 -2.93832,-1.36429 -10,-1c-8.23526,0.42483 -15.82443,4.09789 -17,6c-1.57719,2.55196 -0.32863,6.49741 4,9c6.59317,3.81183 16.81389,8.49487 35,10c22.92163,1.89705 39.72549,1.69195 46,-2c1.21887,-0.71719 1.48056,-4.03873 1,-7c-0.50653,-3.12144 -4.81961,-6.53404 -13,-9c-12.77389,-3.85066 -24.96451,-6.93726 -32,-3c-5.58765,3.12701 -5.68976,9.03406 -5,16c0.50244,5.0742 4.87295,8.51498 12,10c14.81457,3.08684 35.91693,3.99847 54,5c9.98471,0.553 11.61731,0.92388 12,0c1.0824,-2.61313 -4.90778,-3.49622 -9,-4c-3.97003,-0.48873 -10.03815,1.7217 -14,6c-1.51929,1.64066 -2.05145,3.2987 -1,5c2.35113,3.80423 10,4 21,5l8,0" id="svg_52" fill-opacity="null" stroke-opacity="null" stroke-width="0" fill="none"/>
     </g>
    </g>
    <path stroke="#000" fill="#fff" stroke-width="0" d="m5603.139228,3656.120974l30.6818,49.82257l-12.65136,5.87985l38.63425,42.68702l-12.64569,7.1289l47.76,71.48167l-81.00948,-54.77892l15.45143,-7.60726l-50.33335,-35.08641l18.03612,-10.84283l-53.14476,-36.80718l59.22104,-31.87741z" id="svg_49"/>
   </g>
  </g>
 </g>
</svg>